# xmcd CD database file
#
# Track frame offsets:
#	150
#	22087
#	39165
#	54875
#	71680
#	89357
#	107592
#	126390
#	142310
#	167357
#	185165
#
# Disc length: 2706 seconds
#
# Revision: 0
# Processed by: cddbd v1.5PL3 Copyright (c) Steve Scherf et al.
# Submitted via: CDex 1.50beta10
#
DISCID=990a900b
DTITLE=太田貴子 - Pop Station
DYEAR=1984
DGENRE=J-Pop
TTITLE0=ZONE
TTITLE1=感じたいEmotion
TTITLE2=夢でI Love You
TTITLE3=Hi - LITTLE ANGEL
TTITLE4=パッション
TTITLE5=悲しみをこえて
TTITLE6=HAVE A GOOD TIME
TTITLE7=土曜日は眠れない
TTITLE8=リフレイン
TTITLE9=少し素直に
TTITLE10=Forewell To Sorrow
EXTD=YEAR: 1984
EXTT0=
EXTT1=
EXTT2=
EXTT3=
EXTT4=
EXTT5=
EXTT6=
EXTT7=
EXTT8=
EXTT9=
EXTT10=
PLAYORDER=
